<svg xmlns="http://www.w3.org/2000/svg" width="241" height="247" viewBox="0 0 241 247" fill="none"><path d="M146 241.5L137.75 246.263L137.75 236.737L146 241.5Z" fill="black"></path><path d="M77 65L54.5 77.1244L54.5 52.8756L77 65Z" fill="#7EECD4"></path><path d="M-43.0588 84.0817C-36.9144 106.009 -28.3816 122.775 -11.8851 138.927C3.49919 153.991 21.8889 166.98 40.6637 177.446C73.9277 195.987 122.051 211.111 159.975 199.307C200.142 186.805 191.464 139.137 156.401 127.25C141.37 122.155 145.669 138.189 152.406 145.104C162.571 155.538 186.925 174.148 202.877 169.884C221.904 164.799 217.081 136.56 216.266 122.661C215.052 101.948 220.216 92.8431 240 86.8656" stroke="black" stroke-linecap="round" stroke-linejoin="round"></path></svg>