<svg xmlns="http://www.w3.org/2000/svg" width="239" height="219" viewBox="0 0 239 219" fill="none"><mask id="mask0" maskUnits="userSpaceOnUse" x="96" y="38" width="96" height="111"><path d="M96 93.5L192 38.0743L192 148.926L96 93.5Z" fill="#2EDAB5"></path></mask><g mask="url(#mask0)"><line x1="311.656" y1="116.374" x2="148.85" y2="222.787" stroke="black"></line><line x1="305.208" y1="106.506" x2="142.402" y2="212.919" stroke="black"></line><line x1="298.757" y1="96.6387" x2="135.952" y2="203.052" stroke="black"></line><line x1="292.308" y1="86.772" x2="129.502" y2="193.185" stroke="black"></line><line x1="285.858" y1="76.9053" x2="123.053" y2="183.319" stroke="black"></line><line x1="279.409" y1="67.0377" x2="116.603" y2="173.451" stroke="black"></line><line x1="272.96" y1="57.1705" x2="110.155" y2="163.584" stroke="black"></line><line x1="266.51" y1="47.3048" x2="103.705" y2="153.718" stroke="black"></line><line x1="260.063" y1="37.4371" x2="97.2572" y2="143.85" stroke="black"></line><line x1="253.613" y1="27.5684" x2="90.808" y2="133.982" stroke="black"></line><line x1="247.164" y1="17.7017" x2="84.3583" y2="124.115" stroke="black"></line><line x1="240.714" y1="7.83406" x2="77.9086" y2="114.247" stroke="black"></line><line x1="234.266" y1="-2.03216" x2="71.4604" y2="104.381" stroke="black"></line><line x1="227.816" y1="-11.8998" x2="65.0107" y2="94.5133" stroke="black"></line><line x1="221.366" y1="-21.766" x2="58.5609" y2="84.6471" stroke="black"></line><line x1="214.918" y1="-31.6337" x2="52.1127" y2="74.7795" stroke="black"></line><line x1="208.469" y1="-41.5009" x2="45.6635" y2="64.9123" stroke="black"></line><line x1="202.019" y1="-51.3666" x2="39.2133" y2="55.0465" stroke="black"></line></g><path d="M120 213.5L112.5 218.263L112.5 208.737L120 213.5Z" fill="#37CBAB"></path><path d="M1.55023e-07 13L20.25 1.74167L20.25 24.2583L1.55023e-07 13Z" fill="black"></path></svg>