<svg width="376" height="237" viewBox="0 0 376 237" fill="none" xmlns="http://www.w3.org/2000/svg">
<g clip-path="url(#clip0_2626_134)">
<circle cx="6.5" cy="6.5" r="6.5" fill="#D9D9D9"/>
<circle cx="39.5" cy="6.5" r="6.5" fill="#D9D9D9"/>
<circle cx="72.5" cy="6.5" r="6.5" fill="#D9D9D9"/>
<circle cx="6.5" cy="38.5" r="6.5" fill="#D9D9D9"/>
<circle cx="39.5" cy="38.5" r="6.5" fill="#D9D9D9"/>
<circle cx="72.5" cy="38.5" r="6.5" fill="#D9D9D9"/>
<circle cx="6.5" cy="70.5" r="6.5" fill="#D9D9D9"/>
<circle cx="39.5" cy="70.5" r="6.5" fill="#D9D9D9"/>
<circle cx="72.5" cy="70.5" r="6.5" fill="#D9D9D9"/>
<circle cx="6.5" cy="102.5" r="6.5" fill="#D9D9D9"/>
<circle cx="39.5" cy="102.5" r="6.5" fill="#D9D9D9"/>
<circle cx="72.5" cy="102.5" r="6.5" fill="#D9D9D9"/>
<circle cx="105.5" cy="6.5" r="6.5" fill="#D9D9D9"/>
<circle cx="138.5" cy="6.5" r="6.5" fill="#D9D9D9"/>
<circle cx="171.5" cy="6.5" r="6.5" fill="#D9D9D9"/>
<circle cx="105.5" cy="38.5" r="6.5" fill="#D9D9D9"/>
<circle cx="138.5" cy="38.5" r="6.5" fill="#D9D9D9"/>
<circle cx="171.5" cy="38.5" r="6.5" fill="#D9D9D9"/>
<circle cx="105.5" cy="70.5" r="6.5" fill="#D9D9D9"/>
<circle cx="138.5" cy="70.5" r="6.5" fill="#D9D9D9"/>
<circle cx="171.5" cy="70.5" r="6.5" fill="#D9D9D9"/>
<circle cx="105.5" cy="102.5" r="6.5" fill="#D9D9D9"/>
<circle cx="138.5" cy="102.5" r="6.5" fill="#D9D9D9"/>
<circle cx="171.5" cy="102.5" r="6.5" fill="#D9D9D9"/>
<circle cx="204.5" cy="6.5" r="6.5" fill="#D9D9D9"/>
<circle cx="237.5" cy="6.5" r="6.5" fill="#D9D9D9"/>
<circle cx="270.5" cy="6.5" r="6.5" fill="#D9D9D9"/>
<circle cx="204.5" cy="38.5" r="6.5" fill="#D9D9D9"/>
<circle cx="237.5" cy="38.5" r="6.5" fill="#D9D9D9"/>
<circle cx="270.5" cy="38.5" r="6.5" fill="#D9D9D9"/>
<circle cx="204.5" cy="70.5" r="6.5" fill="#D9D9D9"/>
<circle cx="237.5" cy="70.5" r="6.5" fill="#D9D9D9"/>
<circle cx="270.5" cy="70.5" r="6.5" fill="#D9D9D9"/>
<circle cx="204.5" cy="102.5" r="6.5" fill="#D9D9D9"/>
<circle cx="237.5" cy="102.5" r="6.5" fill="#D9D9D9"/>
<circle cx="270.5" cy="102.5" r="6.5" fill="#D9D9D9"/>
<circle cx="303.5" cy="6.5" r="6.5" fill="#D9D9D9"/>
<circle cx="336.5" cy="6.5" r="6.5" fill="#D9D9D9"/>
<circle cx="369.5" cy="6.5" r="6.5" fill="#D9D9D9"/>
<circle cx="303.5" cy="38.5" r="6.5" fill="#D9D9D9"/>
<circle cx="336.5" cy="38.5" r="6.5" fill="#D9D9D9"/>
<circle cx="369.5" cy="38.5" r="6.5" fill="#D9D9D9"/>
<circle cx="303.5" cy="70.5" r="6.5" fill="#D9D9D9"/>
<circle cx="336.5" cy="70.5" r="6.5" fill="#D9D9D9"/>
<circle cx="369.5" cy="70.5" r="6.5" fill="#D9D9D9"/>
<circle cx="303.5" cy="102.5" r="6.5" fill="#D9D9D9"/>
<circle cx="336.5" cy="102.5" r="6.5" fill="#D9D9D9"/>
<circle cx="369.5" cy="102.5" r="6.5" fill="#D9D9D9"/>
<circle cx="6.5" cy="134.5" r="6.5" fill="#D9D9D9"/>
<circle cx="39.5" cy="134.5" r="6.5" fill="#D9D9D9"/>
<circle cx="72.5" cy="134.5" r="6.5" fill="#D9D9D9"/>
<circle cx="6.5" cy="166.5" r="6.5" fill="#D9D9D9"/>
<circle cx="39.5" cy="166.5" r="6.5" fill="#D9D9D9"/>
<circle cx="72.5" cy="166.5" r="6.5" fill="#D9D9D9"/>
<circle cx="6.5" cy="198.5" r="6.5" fill="#D9D9D9"/>
<circle cx="39.5" cy="198.5" r="6.5" fill="#D9D9D9"/>
<circle cx="72.5" cy="198.5" r="6.5" fill="#D9D9D9"/>
<circle cx="6.5" cy="230.5" r="6.5" fill="#D9D9D9"/>
<circle cx="39.5" cy="230.5" r="6.5" fill="#D9D9D9"/>
<circle cx="72.5" cy="230.5" r="6.5" fill="#D9D9D9"/>
<circle cx="105.5" cy="134.5" r="6.5" fill="#D9D9D9"/>
<circle cx="138.5" cy="134.5" r="6.5" fill="#D9D9D9"/>
<circle cx="171.5" cy="134.5" r="6.5" fill="#D9D9D9"/>
<circle cx="105.5" cy="166.5" r="6.5" fill="#D9D9D9"/>
<circle cx="138.5" cy="166.5" r="6.5" fill="#D9D9D9"/>
<circle cx="171.5" cy="166.5" r="6.5" fill="#D9D9D9"/>
<circle cx="105.5" cy="198.5" r="6.5" fill="#D9D9D9"/>
<circle cx="138.5" cy="198.5" r="6.5" fill="#D9D9D9"/>
<circle cx="171.5" cy="198.5" r="6.5" fill="#D9D9D9"/>
<circle cx="105.5" cy="230.5" r="6.5" fill="#D9D9D9"/>
<circle cx="138.5" cy="230.5" r="6.5" fill="#D9D9D9"/>
<circle cx="171.5" cy="230.5" r="6.5" fill="#D9D9D9"/>
<circle cx="204.5" cy="134.5" r="6.5" fill="#D9D9D9"/>
<circle cx="237.5" cy="134.5" r="6.5" fill="#D9D9D9"/>
<circle cx="270.5" cy="134.5" r="6.5" fill="#D9D9D9"/>
<circle cx="204.5" cy="166.5" r="6.5" fill="#D9D9D9"/>
<circle cx="237.5" cy="166.5" r="6.5" fill="#D9D9D9"/>
<circle cx="270.5" cy="166.5" r="6.5" fill="#D9D9D9"/>
<circle cx="204.5" cy="198.5" r="6.5" fill="#D9D9D9"/>
<circle cx="237.5" cy="198.5" r="6.5" fill="#D9D9D9"/>
<circle cx="270.5" cy="198.5" r="6.5" fill="#D9D9D9"/>
<circle cx="204.5" cy="230.5" r="6.5" fill="#D9D9D9"/>
<circle cx="237.5" cy="230.5" r="6.5" fill="#D9D9D9"/>
<circle cx="270.5" cy="230.5" r="6.5" fill="#D9D9D9"/>
<circle cx="303.5" cy="134.5" r="6.5" fill="#D9D9D9"/>
<circle cx="336.5" cy="134.5" r="6.5" fill="#D9D9D9"/>
<circle cx="369.5" cy="134.5" r="6.5" fill="#D9D9D9"/>
<circle cx="303.5" cy="166.5" r="6.5" fill="#D9D9D9"/>
<circle cx="336.5" cy="166.5" r="6.5" fill="#D9D9D9"/>
<circle cx="369.5" cy="166.5" r="6.5" fill="#D9D9D9"/>
<circle cx="303.5" cy="198.5" r="6.5" fill="#D9D9D9"/>
<circle cx="336.5" cy="198.5" r="6.5" fill="#D9D9D9"/>
<circle cx="369.5" cy="198.5" r="6.5" fill="#D9D9D9"/>
<circle cx="303.5" cy="230.5" r="6.5" fill="#D9D9D9"/>
<circle cx="336.5" cy="230.5" r="6.5" fill="#D9D9D9"/>
<circle cx="369.5" cy="230.5" r="6.5" fill="#D9D9D9"/>
</g>
<defs>
<clipPath id="clip0_2626_134">
<rect width="376" height="237" fill="white"/>
</clipPath>
</defs>
</svg>
